<!-- Generated by IcoMoon.io -->
<svg version="1.1" xmlns="http://www.w3.org/2000/svg" width="32" height="32" viewBox="0 0 32 32">
<title>behance</title>
<path d="M12.401 12.603c0-1.799-2.032-1.753-2.032-1.753h-3.444v3.506h3.444c0 0 2.032 0.046 2.032-1.753z"></path>
<path d="M22.853 14.387c-1.241 0-2.27 0.929-2.466 2.386h4.933c-0.196-1.457-1.226-2.386-2.466-2.386z"></path>
<path d="M10.579 16.728h-3.654v4.181h3.654c0 0 2.424 0.056 2.424-2.090s-2.424-2.090-2.424-2.090z"></path>
<path d="M0 0v32h32v-32h-32zM19.723 9.206h6.236v1.551h-6.236v-1.551zM13.782 22.95c-0.859 0.424-1.937 0.557-2.947 0.557h-7.275v-15.294c0 0 7.012 0 8.005 0s4.059 0.589 4.077 3.537c0.012 2.038-1.142 2.969-2.105 3.415 0 0 2.543 0.758 2.745 3.007s-0.202 3.645-2.498 4.778zM28.408 18.73h-8.021c-0.074 1.768 1.216 2.821 2.684 2.821 1.040 0 1.954-0.552 2.481-1.487h2.625c-0.72 2.629-2.837 3.723-5.336 3.723-3.273 0-5.6-2.625-5.6-5.864s2.507-5.864 5.6-5.864 5.6 2.625 5.6 5.864c0 0.28-0.011 0.549-0.034 0.807z"></path>
</svg>
