<!-- Generated by IcoMoon.io -->
<svg version="1.1" xmlns="http://www.w3.org/2000/svg" width="32" height="32" viewBox="0 0 32 32">
<title>github</title>
<path d="M31.040 0h-30.079c-0.456 0-0.826 0.37-0.826 0.826v30.347c0 0.457 0.37 0.826 0.826 0.826l9.999-0.007c0.451-0.005 0.797-0.258 0.813-0.685 0.041-1.111 0.012-2.225 0.012-3.299-0.805 0.038-1.574 0.139-2.334 0.096-1.677-0.097-2.965-0.812-3.633-2.454-0.396-0.973-0.992-1.805-1.921-2.36-0.173-0.104-0.325-0.257-0.458-0.412-0.173-0.202-0.141-0.41 0.133-0.466 0.276-0.056 0.579-0.096 0.851-0.044 1.071 0.201 1.811 0.873 2.378 1.766 1.121 1.767 2.846 2.308 4.787 1.492 0.108-0.046 0.246-0.156 0.266-0.256 0.156-0.782 0.449-1.496 1.038-2.121-0.655-0.121-1.262-0.211-1.857-0.349-1.714-0.396-3.253-1.11-4.379-2.526-0.918-1.156-1.338-2.508-1.531-3.948-0.302-2.255-0.032-4.366 1.517-6.168 0.078-0.091 0.121-0.278 0.086-0.391-0.388-1.267-0.329-2.524 0.056-3.777 0.202-0.658 0.258-0.691 0.93-0.599 0.041 0.006 0.081 0.016 0.122 0.023 1.346 0.223 2.505 0.875 3.647 1.575 0.153 0.094 0.387 0.153 0.556 0.112 2.726-0.662 5.448-0.659 8.174 0.002 0.158 0.038 0.37-0.016 0.521-0.096 0.621-0.324 1.215-0.702 1.843-1.009 0.731-0.357 1.501-0.626 2.331-0.612 0.145 0.003 0.37 0.141 0.418 0.27 0.499 1.322 0.604 2.669 0.207 4.045-0.042 0.147 0.021 0.356 0.1 0.501 0.392 0.72 0.94 1.384 1.188 2.148 0.757 2.328 0.481 4.632-0.549 6.82-0.944 2.005-2.695 3.021-4.767 3.545-0.7 0.177-1.417 0.284-2.172 0.433 0.989 1.034 1.145 2.295 1.127 3.616-0.018 1.363-0.013 2.726-0.014 4.089-0 0.66 0.288 1.025 0.791 1.046-0 0.002 10.632 0.002 10.632 0.002v-31.173c-0-0.456-0.37-0.826-0.826-0.826z"></path>
</svg>
