<!-- Generated by IcoMoon.io -->
<svg version="1.1" xmlns="http://www.w3.org/2000/svg" width="32" height="32" viewBox="0 0 32 32">
<title>linkedin</title>
<path d="M0 0v32h32v-32h-32zM9.826 26.399c0 0.408-0.33 0.738-0.738 0.738h-3.14c-0.408 0-0.738-0.33-0.738-0.738v-13.396c0-0.408 0.33-0.738 0.738-0.738h3.14c0.408 0 0.738 0.33 0.738 0.738v13.396zM7.513 10.216c-1.426 0.029-2.679-1.162-2.679-2.681 0-1.473 1.213-2.676 2.697-2.674 1.466 0.001 2.674 1.212 2.671 2.685-0.004 1.542-1.283 2.705-2.689 2.671zM27.166 26.834c0 0.169-0.137 0.306-0.306 0.306l-4.013-0.001c-0.169-0-0.306-0.137-0.306-0.306v-8.272c0-0.715-0.29-1.363-0.758-1.831-0.475-0.475-1.134-0.767-1.861-0.758-1.424 0.016-2.56 1.198-2.56 2.622v8.238c0 0.169-0.137 0.306-0.306 0.306l-4.003-0.001c-0.169-0-0.306-0.137-0.306-0.306v-14.259c0-0.169 0.137-0.306 0.306-0.306h3.918c0.169 0 0.306 0.137 0.306 0.306v1.644c0-0.001 0.016 0.001 0.042 0.005 0.076-0.137 0.158-0.27 0.247-0.397 0.816-1.172 2.174-1.938 3.71-1.938h0.805c2.808 0 5.085 2.277 5.085 5.085v9.863z"></path>
</svg>
