<!-- Generated by IcoMoon.io -->
<svg version="1.1" xmlns="http://www.w3.org/2000/svg" width="32" height="32" viewBox="0 0 32 32">
<title>twitter</title>
<path d="M0 0v32h32v-32h-32zM25.367 11.512c0.007 0.188 0.011 0.377 0.011 0.566 0 7.607-6.167 13.775-13.775 13.775-2.708 0-5.234-0.782-7.364-2.132-0-0-0.001-0-0.001-0l0.001 0c0 0 0 0 0 0 4.163 0.621 7.096-2.028 7.096-2.028-3.71-0.289-4.443-3.376-4.443-3.376 1.311 0.222 2.132-0.089 2.132-0.089-4.175-0.977-3.82-4.798-3.82-4.798 0.967 0.578 2.088 0.622 2.088 0.622-3.687-3.243-1.377-6.397-1.377-6.397 3.866 4.681 9.548 5 9.921 5.015-0.082-0.352-0.125-0.718-0.125-1.095 0-2.668 2.164-4.831 4.834-4.831 1.392 0 2.646 0.588 3.528 1.529 0.245-0.069 0.482-0.143 0.708-0.218 1.369-0.456 2.346-0.978 2.346-0.978-0.236 1.413-1.978 2.599-2.103 2.683-0.005 0.003-0.007 0.005-0.007 0.005 0.003 0 0.006-0.001 0.009-0.001 1.353-0.135 2.735-0.71 2.735-0.71-0.417 0.877-2.119 2.241-2.394 2.457z"></path>
</svg>
