<!-- Generated by IcoMoon.io -->
<svg version="1.1" xmlns="http://www.w3.org/2000/svg" width="32" height="32" viewBox="0 0 32 32">
<title>ux</title>
<path d="M31.375 0.641h-30.75c-0.345 0-0.625 0.28-0.625 0.625v6.429c0 0.345 0.28 0.625 0.625 0.625h30.75c0.345 0 0.625-0.28 0.625-0.625v-6.429c0-0.345-0.28-0.625-0.625-0.625zM30.75 7.069h-29.5v-5.179h29.5v5.179z"></path>
<path d="M29.338 5.65l-0.51-0.51c0.139-0.276 0.213-0.582 0.213-0.899 0-0.533-0.208-1.035-0.585-1.412-0.779-0.778-2.045-0.778-2.824 0-0.377 0.377-0.585 0.879-0.585 1.412s0.208 1.035 0.585 1.412c0.377 0.377 0.879 0.585 1.412 0.585 0.318 0 0.624-0.074 0.899-0.213l0.51 0.51c0.122 0.122 0.282 0.183 0.442 0.183s0.32-0.061 0.442-0.183c0.244-0.244 0.244-0.64 0-0.884zM27.572 4.768c-0.141 0.141-0.328 0.219-0.528 0.219s-0.387-0.078-0.528-0.219c-0.141-0.141-0.219-0.329-0.219-0.528s0.078-0.387 0.219-0.528c0.146-0.146 0.337-0.218 0.528-0.218s0.382 0.073 0.528 0.218c0.141 0.141 0.219 0.329 0.219 0.528s-0.078 0.387-0.219 0.528z"></path>
<path d="M22.396 5.489c-0.008-0.040-0.020-0.079-0.036-0.117s-0.035-0.074-0.058-0.108-0.049-0.066-0.078-0.095c-0.029-0.029-0.061-0.055-0.095-0.077s-0.070-0.042-0.108-0.058c-0.038-0.016-0.077-0.027-0.117-0.036-0.081-0.016-0.164-0.016-0.244 0-0.040 0.008-0.079 0.020-0.117 0.036s-0.074 0.035-0.108 0.058c-0.034 0.022-0.066 0.049-0.096 0.077s-0.054 0.061-0.078 0.095c-0.023 0.034-0.042 0.071-0.058 0.108s-0.027 0.077-0.036 0.117c-0.008 0.041-0.012 0.081-0.012 0.122s0.004 0.081 0.012 0.122c0.008 0.040 0.020 0.079 0.036 0.117s0.035 0.074 0.058 0.108c0.023 0.034 0.049 0.066 0.078 0.095s0.061 0.055 0.096 0.077c0.034 0.022 0.070 0.042 0.108 0.058s0.078 0.027 0.117 0.036c0.041 0.008 0.082 0.012 0.122 0.012s0.082-0.004 0.122-0.012c0.040-0.008 0.079-0.020 0.117-0.036s0.074-0.035 0.108-0.058c0.034-0.022 0.066-0.049 0.095-0.077 0.116-0.117 0.183-0.277 0.183-0.442 0-0.041-0.004-0.082-0.012-0.122z"></path>
<path d="M19.414 4.987h-12.989c-0.345 0-0.625 0.28-0.625 0.625s0.28 0.625 0.625 0.625h12.989c0.345 0 0.625-0.28 0.625-0.625s-0.28-0.625-0.625-0.625z"></path>
<path d="M19.676 9.21h-18.977c-0.345 0-0.625 0.28-0.625 0.625v12.325c0 0.345 0.28 0.625 0.625 0.625h18.977c0.345 0 0.625-0.28 0.625-0.625v-12.325c0-0.345-0.28-0.625-0.625-0.625zM7.613 21.535h-5.305l3.573-4.137 2.588 2.996-0.855 1.14zM9.175 21.535l1.165-1.554h3.031c0.345 0 0.625-0.28 0.625-0.625s-0.28-0.625-0.625-0.625h-2.093l0.438-0.585h3.924l2.542 3.388h-9.007zM12.654 16.897l1.025-1.366 1.025 1.366h-2.049zM19.051 20.61l-4.872-6.496c-0.118-0.157-0.303-0.25-0.5-0.25s-0.382 0.093-0.5 0.25l-3.943 5.257-2.882-3.337c-0.119-0.137-0.291-0.216-0.473-0.216s-0.354 0.079-0.473 0.216l-4.084 4.728v-10.302h17.727v10.15z"></path>
<path d="M8.603 11.178c-1.218 0-2.21 0.991-2.21 2.21s0.991 2.21 2.21 2.21c1.218 0 2.21-0.991 2.21-2.21s-0.991-2.21-2.21-2.21zM8.603 14.347c-0.529 0-0.96-0.43-0.96-0.96s0.43-0.96 0.96-0.96c0.529 0 0.96 0.43 0.96 0.96s-0.43 0.96-0.96 0.96z"></path>
<path d="M31.375 9.21h-9.606c-0.345 0-0.625 0.28-0.625 0.625v12.325c0 0.345 0.28 0.625 0.625 0.625h9.606c0.345 0 0.625-0.28 0.625-0.625v-12.325c0-0.345-0.28-0.625-0.625-0.625zM30.75 21.535h-8.356v-11.075h8.356v11.075z"></path>
<path d="M29.295 11.49h-5.445c-0.345 0-0.625 0.28-0.625 0.625s0.28 0.625 0.625 0.625h5.445c0.345 0 0.625-0.28 0.625-0.625s-0.28-0.625-0.625-0.625z"></path>
<path d="M29.295 13.998h-5.445c-0.345 0-0.625 0.28-0.625 0.625s0.28 0.625 0.625 0.625h5.445c0.345 0 0.625-0.28 0.625-0.625s-0.28-0.625-0.625-0.625z"></path>
<path d="M29.295 16.506h-5.445c-0.345 0-0.625 0.28-0.625 0.625s0.28 0.625 0.625 0.625h5.445c0.345 0 0.625-0.28 0.625-0.625s-0.28-0.625-0.625-0.625z"></path>
<path d="M24.462 19.517c-0.008-0.040-0.020-0.079-0.036-0.117s-0.035-0.074-0.058-0.108c-0.023-0.034-0.049-0.066-0.078-0.095-0.145-0.145-0.361-0.212-0.564-0.171-0.040 0.008-0.079 0.020-0.117 0.036s-0.074 0.035-0.108 0.058c-0.034 0.023-0.066 0.049-0.095 0.078s-0.055 0.061-0.078 0.095c-0.023 0.034-0.042 0.071-0.058 0.108s-0.027 0.077-0.036 0.117c-0.008 0.041-0.012 0.081-0.012 0.122s0.004 0.082 0.012 0.122c0.008 0.040 0.020 0.079 0.036 0.117s0.035 0.074 0.058 0.108c0.023 0.034 0.049 0.066 0.078 0.095s0.061 0.055 0.095 0.078c0.034 0.023 0.071 0.042 0.108 0.058s0.077 0.027 0.117 0.036c0.041 0.008 0.081 0.012 0.122 0.012 0.164 0 0.325-0.067 0.441-0.183 0.029-0.029 0.055-0.061 0.078-0.095s0.042-0.071 0.058-0.108 0.027-0.077 0.036-0.117c0.008-0.041 0.012-0.081 0.012-0.122s-0.004-0.081-0.012-0.122z"></path>
<path d="M29.295 19.015h-3.076c-0.345 0-0.625 0.28-0.625 0.625s0.28 0.625 0.625 0.625h3.076c0.345 0 0.625-0.28 0.625-0.625s-0.28-0.625-0.625-0.625z"></path>
<path d="M10.304 23.672h-9.606c-0.345 0-0.625 0.28-0.625 0.625v6.438c0 0.345 0.28 0.625 0.625 0.625h9.606c0.345 0 0.625-0.28 0.625-0.625v-6.438c0-0.345-0.28-0.625-0.625-0.625zM9.679 30.109h-8.356v-5.188h8.356v5.188z"></path>
<path d="M31.375 23.672h-18.892c-0.345 0-0.625 0.28-0.625 0.625v6.438c0 0.345 0.28 0.625 0.625 0.625h18.892c0.345 0 0.625-0.28 0.625-0.625v-6.438c0-0.345-0.28-0.625-0.625-0.625zM30.75 30.109h-17.642v-5.188h17.642v5.188z"></path>
<path d="M15.955 27.394c-0.008-0.040-0.020-0.079-0.036-0.117s-0.035-0.074-0.057-0.108c-0.023-0.034-0.049-0.066-0.078-0.095s-0.061-0.055-0.095-0.078c-0.034-0.022-0.070-0.042-0.108-0.058s-0.077-0.028-0.117-0.036c-0.081-0.016-0.164-0.016-0.244 0-0.039 0.008-0.079 0.021-0.117 0.036s-0.074 0.035-0.107 0.058c-0.034 0.023-0.066 0.049-0.095 0.078s-0.055 0.061-0.078 0.095c-0.023 0.034-0.042 0.070-0.057 0.108s-0.027 0.077-0.036 0.117-0.012 0.081-0.012 0.122c0 0.041 0.004 0.082 0.012 0.122s0.020 0.079 0.036 0.117c0.016 0.038 0.035 0.074 0.057 0.108s0.049 0.066 0.078 0.095c0.116 0.116 0.277 0.183 0.442 0.183 0.041 0 0.082-0.004 0.122-0.012s0.079-0.021 0.117-0.036c0.038-0.016 0.074-0.034 0.108-0.058s0.066-0.049 0.095-0.078c0.029-0.029 0.055-0.061 0.078-0.095s0.042-0.070 0.057-0.108c0.016-0.038 0.027-0.078 0.036-0.117s0.012-0.081 0.012-0.122c0-0.041-0.004-0.082-0.012-0.122z"></path>
<path d="M28.207 26.891h-10.496c-0.345 0-0.625 0.28-0.625 0.625s0.28 0.625 0.625 0.625h10.496c0.345 0 0.625-0.28 0.625-0.625s-0.28-0.625-0.625-0.625z"></path>
</svg>
