<!-- Generated by IcoMoon.io -->
<svg version="1.1" xmlns="http://www.w3.org/2000/svg" width="32" height="32" viewBox="0 0 32 32">
<title>web-design</title>
<path d="M30.832 2.313h-29.663c-0.644 0-1.168 0.524-1.168 1.168v25.108c0 0.644 0.524 1.168 1.168 1.168h29.663c0.644 0 1.168-0.524 1.168-1.168v-25.108c0-0.644-0.524-1.168-1.168-1.168zM30.125 4.188v1.4l-10.961 0.027c-0.293 0.001-0.572 0.111-0.787 0.311l-1.542 1.439h-14.96v-3.177zM1.875 27.882v-18.643h15.244c0.294 0 0.574-0.11 0.789-0.311l1.543-1.44 10.675-0.026v20.42z"></path>
<path d="M6.074 5.982c0.006 0.030 0.013 0.060 0.022 0.089s0.020 0.058 0.031 0.086c0.012 0.028 0.025 0.056 0.039 0.083s0.030 0.053 0.047 0.079c0.017 0.026 0.036 0.051 0.055 0.074s0.040 0.047 0.062 0.069c0.021 0.022 0.044 0.042 0.068 0.062s0.049 0.038 0.074 0.054c0.025 0.017 0.052 0.033 0.079 0.047s0.055 0.028 0.083 0.039c0.028 0.012 0.057 0.022 0.086 0.031s0.059 0.016 0.089 0.022c0.030 0.006 0.061 0.011 0.091 0.014s0.062 0.004 0.092 0.004c0.031 0 0.062-0.001 0.093-0.004s0.061-0.007 0.091-0.014c0.030-0.006 0.060-0.014 0.089-0.022s0.058-0.019 0.086-0.031c0.028-0.011 0.056-0.024 0.083-0.039s0.053-0.031 0.079-0.047c0.025-0.017 0.051-0.035 0.074-0.054 0.024-0.019 0.047-0.040 0.069-0.062s0.043-0.045 0.062-0.069c0.019-0.023 0.037-0.048 0.055-0.074 0.016-0.026 0.032-0.052 0.047-0.079s0.028-0.055 0.039-0.083c0.012-0.028 0.022-0.058 0.031-0.086s0.016-0.060 0.022-0.089c0.006-0.030 0.011-0.061 0.014-0.091s0.004-0.062 0.004-0.092c0-0.031-0.001-0.061-0.004-0.092s-0.007-0.061-0.014-0.091c-0.006-0.030-0.014-0.060-0.022-0.089s-0.020-0.058-0.031-0.086c-0.011-0.029-0.024-0.056-0.039-0.083s-0.031-0.054-0.047-0.079c-0.018-0.026-0.036-0.051-0.055-0.074s-0.040-0.047-0.062-0.068c-0.022-0.022-0.044-0.042-0.069-0.062-0.023-0.020-0.048-0.038-0.074-0.055s-0.052-0.032-0.079-0.047-0.055-0.027-0.083-0.039c-0.028-0.011-0.057-0.022-0.086-0.031s-0.059-0.017-0.089-0.023c-0.030-0.006-0.061-0.011-0.091-0.014-0.061-0.006-0.123-0.006-0.184 0-0.031 0.003-0.061 0.008-0.091 0.014s-0.059 0.013-0.089 0.023c-0.030 0.009-0.058 0.019-0.086 0.031s-0.056 0.025-0.083 0.039-0.054 0.030-0.079 0.047c-0.026 0.017-0.051 0.036-0.074 0.055s-0.047 0.040-0.068 0.062c-0.022 0.021-0.042 0.044-0.062 0.068s-0.038 0.049-0.055 0.074c-0.017 0.025-0.032 0.052-0.047 0.079s-0.027 0.054-0.039 0.083c-0.011 0.028-0.022 0.057-0.031 0.086s-0.017 0.059-0.022 0.089c-0.006 0.030-0.011 0.061-0.014 0.091s-0.005 0.061-0.005 0.092c0 0.031 0.002 0.062 0.005 0.092s0.008 0.061 0.014 0.091z"></path>
<path d="M3.399 6.523c0.024 0.020 0.049 0.038 0.074 0.054s0.052 0.033 0.079 0.048c0.027 0.014 0.055 0.027 0.083 0.039s0.057 0.022 0.086 0.031c0.030 0.009 0.059 0.016 0.089 0.022s0.061 0.011 0.091 0.014c0.031 0.003 0.061 0.004 0.092 0.004s0.062-0.001 0.093-0.004c0.030-0.003 0.061-0.008 0.091-0.014s0.060-0.014 0.089-0.022c0.029-0.009 0.058-0.019 0.086-0.031s0.056-0.024 0.083-0.039c0.027-0.014 0.053-0.031 0.079-0.048s0.051-0.035 0.074-0.054c0.024-0.019 0.047-0.040 0.069-0.062s0.042-0.045 0.062-0.069c0.019-0.023 0.037-0.048 0.054-0.074s0.033-0.052 0.048-0.079c0.014-0.027 0.027-0.055 0.039-0.083s0.022-0.057 0.031-0.086c0.009-0.029 0.016-0.059 0.022-0.089s0.011-0.061 0.014-0.091c0.003-0.031 0.004-0.062 0.004-0.093s-0.001-0.061-0.004-0.092c-0.003-0.031-0.008-0.061-0.014-0.091s-0.014-0.059-0.022-0.089c-0.009-0.029-0.020-0.058-0.031-0.086s-0.024-0.056-0.039-0.083c-0.014-0.027-0.031-0.054-0.048-0.079s-0.035-0.051-0.054-0.074c-0.020-0.024-0.040-0.047-0.062-0.068s-0.045-0.042-0.069-0.063c-0.023-0.019-0.048-0.037-0.074-0.054s-0.052-0.033-0.079-0.047c-0.027-0.014-0.055-0.028-0.083-0.040s-0.057-0.022-0.086-0.031c-0.029-0.009-0.059-0.017-0.089-0.022s-0.061-0.011-0.091-0.014c-0.061-0.006-0.123-0.006-0.184 0-0.031 0.003-0.061 0.008-0.091 0.014s-0.059 0.013-0.089 0.022c-0.029 0.009-0.058 0.019-0.086 0.031s-0.056 0.025-0.083 0.040c-0.027 0.014-0.054 0.030-0.079 0.047s-0.051 0.036-0.074 0.054c-0.024 0.020-0.047 0.041-0.068 0.063s-0.042 0.044-0.062 0.068c-0.019 0.024-0.038 0.049-0.055 0.074s-0.032 0.052-0.047 0.079c-0.014 0.027-0.028 0.054-0.040 0.083s-0.022 0.057-0.031 0.086c-0.009 0.030-0.017 0.059-0.022 0.089s-0.010 0.061-0.014 0.091c-0.003 0.031-0.005 0.061-0.005 0.092 0 0.247 0.1 0.488 0.275 0.663 0.021 0.022 0.044 0.042 0.068 0.062z"></path>
<path d="M9.137 5.982c0.006 0.030 0.013 0.060 0.022 0.089s0.019 0.058 0.031 0.086c0.012 0.028 0.025 0.056 0.039 0.083s0.030 0.053 0.047 0.079c0.017 0.026 0.036 0.051 0.055 0.074s0.040 0.047 0.062 0.069c0.021 0.022 0.044 0.042 0.068 0.062s0.049 0.038 0.074 0.054c0.025 0.017 0.052 0.033 0.079 0.047s0.055 0.028 0.083 0.039c0.028 0.012 0.057 0.022 0.086 0.031s0.059 0.016 0.089 0.022c0.030 0.006 0.061 0.011 0.091 0.014s0.062 0.004 0.092 0.004c0.031 0 0.062-0.001 0.092-0.004s0.061-0.007 0.091-0.014c0.030-0.006 0.059-0.014 0.089-0.022s0.058-0.019 0.086-0.031c0.028-0.011 0.056-0.024 0.083-0.039s0.054-0.031 0.079-0.047c0.026-0.017 0.051-0.035 0.074-0.054s0.047-0.040 0.068-0.062c0.022-0.022 0.042-0.045 0.062-0.069s0.038-0.048 0.055-0.074c0.016-0.026 0.033-0.052 0.047-0.079s0.028-0.055 0.039-0.083c0.012-0.028 0.022-0.058 0.031-0.086s0.016-0.060 0.022-0.089c0.006-0.030 0.011-0.061 0.014-0.091s0.004-0.062 0.004-0.092c0-0.031-0.001-0.061-0.004-0.092s-0.007-0.061-0.014-0.091c-0.006-0.030-0.014-0.059-0.022-0.089s-0.019-0.058-0.031-0.086c-0.011-0.028-0.024-0.056-0.039-0.083s-0.031-0.054-0.047-0.079c-0.017-0.026-0.035-0.051-0.055-0.074s-0.040-0.047-0.062-0.068c-0.021-0.022-0.044-0.042-0.068-0.062s-0.049-0.038-0.074-0.055c-0.025-0.017-0.052-0.032-0.079-0.047s-0.055-0.027-0.083-0.039c-0.028-0.011-0.057-0.022-0.086-0.031s-0.059-0.017-0.089-0.023c-0.031-0.006-0.061-0.011-0.091-0.014-0.061-0.006-0.123-0.006-0.184 0-0.031 0.003-0.061 0.008-0.091 0.014s-0.059 0.014-0.089 0.023c-0.029 0.009-0.058 0.019-0.086 0.031s-0.056 0.025-0.083 0.039c-0.027 0.014-0.054 0.030-0.079 0.047s-0.051 0.036-0.074 0.055c-0.024 0.019-0.047 0.040-0.068 0.062s-0.042 0.044-0.062 0.068c-0.020 0.024-0.038 0.049-0.055 0.074s-0.032 0.052-0.047 0.079c-0.014 0.027-0.027 0.055-0.039 0.083s-0.022 0.057-0.031 0.086c-0.010 0.029-0.017 0.059-0.022 0.089s-0.011 0.061-0.014 0.091c-0.003 0.031-0.005 0.061-0.005 0.092s0.002 0.062 0.005 0.092c0.003 0.030 0.008 0.061 0.014 0.091z"></path>
<path d="M12.092 14.079c-0.355-0.376-0.948-0.394-1.325-0.039l-3.952 3.726c-0.195 0.185-0.307 0.445-0.307 0.714s0.113 0.529 0.308 0.713l3.951 3.725c0.181 0.171 0.412 0.255 0.643 0.255 0.249 0 0.498-0.099 0.682-0.294 0.355-0.376 0.338-0.97-0.039-1.325l-3.261-3.075 3.261-3.075c0.377-0.355 0.394-0.949 0.039-1.325z"></path>
<path d="M18.015 13.866c-0.473-0.211-1.027 0.002-1.238 0.475l-3.346 7.514c-0.211 0.473 0.002 1.027 0.475 1.238 0.124 0.055 0.253 0.081 0.381 0.081 0.359 0 0.701-0.207 0.857-0.556l3.346-7.514c0.211-0.473-0.002-1.027-0.475-1.238z"></path>
<path d="M21.233 14.040c-0.377-0.355-0.97-0.338-1.325 0.039s-0.338 0.97 0.039 1.325l3.261 3.075-3.261 3.075c-0.377 0.355-0.394 0.948-0.039 1.325 0.185 0.196 0.433 0.294 0.682 0.294 0.23 0 0.462-0.085 0.643-0.255l3.951-3.725c0.196-0.184 0.308-0.444 0.308-0.713s-0.112-0.529-0.308-0.714z"></path>
</svg>
