<svg id="blue" xmlns="http://www.w3.org/2000/svg" viewBox="0 0 387 387"><defs><style>.cls-1{fill:#9dd1f1;}.cls-2{fill:none;stroke:#9dd1f1;stroke-miterlimit:10;stroke-width:10px;}</style></defs><title>Alabi-logo-blue</title><path class="cls-1" d="M130.52,206.06,124.7,225.6H96l31.75-100.48h38.12l33,100.48H168.15l-6.1-19.54Zm26.37-21.82c-4.72-15.79-8.59-29.83-10.87-39.63h-.4c-2.32,10.83-6.16,25.17-10.24,39.63Z" transform="translate(-50.3 -43)"/><path class="cls-1" d="M209.4,125.12h29.53v78.66h47.36L283.1,225.6H209.4Z" transform="translate(-50.3 -43)"/><path class="cls-1" d="M130.54,327.78l-5.82,19.54H96L127.8,246.84h38.11l33,100.48H168.18l-6.1-19.54ZM156.91,306c-4.72-15.79-8.59-29.83-10.86-39.63h-.4c-2.33,10.83-6.17,25.17-10.25,39.63Z" transform="translate(-50.3 -43)"/><path class="cls-1" d="M209.43,246.84h50c24.23,0,34.92,12,34.92,26.13,0,10.72-5.63,18.37-13.68,21.69,7.53,2.67,16.45,9.72,16.45,22.71,0,16.48-12.3,29.95-37.37,29.95H209.43Zm45,38.74c8.11,0,11.38-4.17,11.38-9.62,0-6.23-4.53-9.29-11.6-9.29H238v18.91Zm-16.43,42h15.05c9.68,0,13.79-4.21,13.79-11.4,0-6.31-3.89-10.78-13.25-10.78H238Z" transform="translate(-50.3 -43)"/><path class="cls-1" d="M341,246.84V347.32H311.49V246.84Z" transform="translate(-50.3 -43)"/><path class="cls-1" d="M357.88,347.27V316.82h28.36v30.45Z" transform="translate(-50.3 -43)"/><rect class="cls-2" x="5" y="5" width="377" height="377"/></svg>