<svg id="blue" xmlns="http://www.w3.org/2000/svg" viewBox="0 0 41 41"><defs><style>.cls-1{fill:#9dd1f1;}.cls-2{fill:none;stroke:#9dd1f1;stroke-miterlimit:10;stroke-width:2px;}</style></defs><title>alabi-logo-blue2</title><path class="cls-1" d="M10.58,19.76l-.6,2H7l3.28-10.4h4l3.41,10.4H14.47l-.63-2Zm2.73-2.26c-.49-1.63-.89-3.09-1.13-4.1h0c-.24,1.12-.64,2.6-1.06,4.1Z" transform="translate(-1.8 -2.4)"/><path class="cls-1" d="M18.74,11.38h3.05v8.14h4.9l-.33,2.26H18.74Z" transform="translate(-1.8 -2.4)"/><path class="cls-1" d="M10.58,32.35l-.6,2H7L10.3,24h3.94l3.41,10.39H14.47l-.63-2Zm2.73-2.26c-.49-1.63-.89-3.08-1.13-4.1h0c-.24,1.12-.64,2.61-1.06,4.1Z" transform="translate(-1.8 -2.4)"/><path class="cls-1" d="M18.74,24h5.17c2.51,0,3.61,1.24,3.61,2.7a2.3,2.3,0,0,1-1.41,2.24,2.45,2.45,0,0,1,1.7,2.35c0,1.71-1.27,3.1-3.86,3.1H18.74Zm4.66,4c.83,0,1.17-.43,1.17-1s-.46-1-1.2-1H21.7V28Zm-1.7,4.34h1.55c1,0,1.43-.43,1.43-1.18S24.28,30,23.31,30H21.7Z" transform="translate(-1.8 -2.4)"/><path class="cls-1" d="M32.35,24V34.37H29.3V24Z" transform="translate(-1.8 -2.4)"/><path class="cls-1" d="M34.1,34.36V31.21H37v3.15Z" transform="translate(-1.8 -2.4)"/><rect class="cls-2" x="1" y="1" width="39" height="39"/></svg>